<svg width="219" height="283" viewBox="0 0 219 283" fill="none" xmlns="http://www.w3.org/2000/svg">
<path d="M205.16 277.8C204.872 277.794 204.593 277.691 204.369 277.508C204.144 277.326 203.986 277.073 203.92 276.79C203.513 275.03 203.367 273.35 203.48 271.75C203.8 266.917 203.84 260.933 203.6 253.8C203.47 249.74 203.76 245.59 203.92 241.5C203.908 241.039 204.067 240.591 204.366 240.24C204.665 239.889 205.083 239.661 205.54 239.6L205.75 239.57C205.935 239.546 206.124 239.562 206.303 239.616C206.482 239.67 206.648 239.761 206.79 239.883C206.933 240.006 207.048 240.157 207.129 240.327C207.21 240.497 207.254 240.682 207.26 240.87C207.293 242.163 207.223 243.397 207.05 244.57C207.01 244.842 207.01 245.118 207.05 245.39L208.5 256.78C208.527 257.006 208.527 257.231 208.5 257.45C207.72 263.35 207.263 269.483 207.13 275.85C207.103 277.177 206.447 277.827 205.16 277.8Z" fill="black"/>
<path d="M19.1099 268.11L13.8399 278.26C13.7088 278.516 13.484 278.712 13.2121 278.807C12.9402 278.902 12.6422 278.889 12.3799 278.77L11.9099 278.56C11.713 278.488 11.5331 278.376 11.3818 278.231C11.2305 278.086 11.1111 277.911 11.0312 277.717C10.9512 277.523 10.9125 277.315 10.9174 277.105C10.9224 276.896 10.9709 276.69 11.0599 276.5L27.7999 240.64C27.9144 240.393 28.0864 240.178 28.3014 240.011C28.5164 239.845 28.7682 239.733 29.0356 239.684C29.303 239.635 29.5783 239.65 29.8383 239.73C30.0983 239.809 30.3355 239.95 30.5299 240.14C34.1299 243.64 35.3399 249.55 37.2599 255.63C37.5259 256.488 37.8811 257.319 38.3199 258.11C40.2499 261.6 41.2299 265.24 42.9099 268.53C44.0699 270.797 45.4199 273.747 46.9599 277.38C47.139 277.81 47.143 278.294 46.9709 278.726C46.7989 279.158 46.4646 279.504 46.0399 279.69L45.5599 279.9C45.2601 280.031 44.9205 280.039 44.6151 279.921C44.3097 279.803 44.0634 279.569 43.9299 279.27L39.1899 268.52C39.1283 268.375 39.025 268.252 38.8932 268.167C38.7613 268.081 38.607 268.037 38.4499 268.04C37.5699 268.053 35.0166 267.687 30.7899 266.94C29.0799 266.63 27.1399 268.21 24.4999 267.54C22.6999 267.09 21.4099 267.35 19.9399 267.54C19.7667 267.561 19.6009 267.624 19.4565 267.723C19.312 267.822 19.1932 267.955 19.1099 268.11ZM21.1399 264.17C22.9666 263.937 24.3066 263.957 25.1599 264.23C25.5735 264.368 26.0131 264.402 26.4399 264.33C29.5333 263.797 32.8433 263.947 36.3699 264.78C36.4612 264.801 36.5569 264.796 36.6457 264.765C36.7344 264.735 36.8124 264.68 36.8703 264.607C36.9283 264.534 36.9638 264.447 36.9726 264.355C36.9814 264.264 36.9631 264.171 36.9199 264.09C34.7466 259.783 32.7933 254.457 31.0599 248.11C30.8866 247.49 30.5533 246.663 30.0599 245.63C30.024 245.557 29.9681 245.495 29.8989 245.451C29.8297 245.408 29.75 245.385 29.6692 245.385C29.5883 245.385 29.5097 245.408 29.4425 245.451C29.3754 245.495 29.3224 245.557 29.2899 245.63L20.8399 263.75C20.8182 263.799 20.8094 263.852 20.8145 263.906C20.8197 263.959 20.8385 264.01 20.8691 264.052C20.8998 264.095 20.941 264.129 20.9886 264.149C21.0363 264.17 21.0885 264.177 21.1399 264.17Z" fill="black"/>
<path d="M68.51 244.18C68.6634 251.72 68.1634 259.827 67.01 268.5C66.83 269.853 67.17 272.367 68.03 276.04C68.0762 276.243 68.075 276.455 68.0264 276.658C67.9777 276.861 67.883 277.05 67.7496 277.21C67.6162 277.371 67.4476 277.498 67.2569 277.583C67.0663 277.668 66.8586 277.708 66.65 277.7L66.18 277.69C65.8464 277.676 65.5259 277.556 65.2652 277.347C65.0044 277.139 64.817 276.852 64.73 276.53C63.6167 272.45 63.2134 268.937 63.52 265.99C64.4 257.54 65.49 251.18 65.27 244.31C65.2647 244.174 65.2306 244.042 65.1702 243.92C65.1098 243.799 65.0243 243.692 64.9194 243.606C64.8146 243.52 64.6927 243.457 64.5618 243.421C64.4309 243.386 64.294 243.379 64.16 243.4C60.3134 244.02 55.91 244.15 50.95 243.79C50.7877 243.777 50.6299 243.729 50.4881 243.647C50.3463 243.566 50.224 243.454 50.13 243.32C49.97 243.1 49.85 242.863 49.77 242.61C49.6994 242.392 49.6772 242.161 49.705 241.935C49.7329 241.708 49.8101 241.491 49.9311 241.3C50.052 241.109 50.2135 240.949 50.4037 240.831C50.5939 240.713 50.808 240.641 51.03 240.62C58.26 239.93 64.09 239.79 71.32 240.47C74.2734 240.75 77.1934 240.787 80.08 240.58C80.299 240.566 80.5184 240.601 80.7222 240.682C80.926 240.763 81.1093 240.889 81.2586 241.05C81.4079 241.211 81.5196 241.403 81.5855 241.612C81.6515 241.821 81.6701 242.042 81.64 242.26L81.62 242.37C81.553 242.866 81.3007 243.318 80.9134 243.637C80.5261 243.956 80.0322 244.117 79.53 244.09L69.21 243.51C69.1192 243.504 69.0282 243.518 68.9428 243.549C68.8574 243.58 68.7793 243.629 68.7136 243.692C68.6479 243.755 68.5958 243.831 68.5608 243.915C68.5258 243.999 68.5085 244.089 68.51 244.18Z" fill="black"/>
<path d="M189.56 243.81C189.723 243.888 189.867 244.001 189.983 244.14C190.099 244.279 190.183 244.441 190.231 244.616C190.278 244.79 190.287 244.973 190.258 245.152C190.228 245.33 190.161 245.5 190.06 245.65L189.9 245.92C189.733 246.206 189.474 246.427 189.164 246.545C188.855 246.663 188.515 246.672 188.2 246.57L175.71 242.46C175.683 242.454 175.652 242.454 175.62 242.46C172.49 243.21 170.02 246.65 168.32 249.41C168.16 249.667 168.082 249.966 168.094 250.271C168.107 250.575 168.21 250.871 168.39 251.12L169.8 253.03C170.55 254.055 171.67 254.745 172.92 254.95C177.926 255.757 182.516 257.377 186.69 259.81C187.329 260.179 187.882 260.684 188.31 261.29C191.803 266.237 191.52 271.037 187.46 275.69C182.58 281.28 168.15 278.19 164 272.07C163.879 271.892 163.795 271.692 163.752 271.482C163.71 271.271 163.71 271.054 163.753 270.843C163.796 270.632 163.881 270.433 164.002 270.255C164.123 270.078 164.279 269.926 164.46 269.81L164.54 269.75C164.719 269.636 164.919 269.558 165.128 269.521C165.337 269.484 165.552 269.489 165.759 269.536C165.966 269.582 166.162 269.669 166.336 269.792C166.509 269.915 166.657 270.07 166.77 270.25C167.63 271.603 168.543 272.443 169.51 272.77C172.736 273.85 175.723 274.5 178.47 274.72C182.22 275.02 186.41 273.41 187.16 269.34C187.98 264.82 182.84 261.35 179.02 260.61C175.42 259.917 173.126 259.467 172.14 259.26C167.07 258.22 164.65 253.42 165.17 248.49C165.223 248.028 165.365 247.583 165.59 247.18C168.443 242.133 172.516 239.787 177.81 240.14C181.003 240.353 184.92 241.577 189.56 243.81Z" fill="black"/>
<path d="M129.73 275.79C135.777 275.183 139.62 274.927 141.26 275.02C141.514 275.033 142.004 275.15 142.73 275.37C142.863 275.41 143.005 275.427 143.15 275.42L151.65 275.14C151.891 275.133 152.131 275.177 152.353 275.271C152.575 275.364 152.774 275.505 152.938 275.682C153.101 275.859 153.224 276.07 153.298 276.299C153.373 276.528 153.398 276.771 153.37 277.01L153.35 277.18C153.286 277.6 153.061 277.978 152.724 278.235C152.386 278.492 151.962 278.609 151.54 278.56C148.154 278.18 145.71 278.27 144.21 278.83C144.019 278.903 143.815 278.94 143.61 278.94L128.14 279.07C127.962 279.077 127.782 279.049 127.61 278.99C126.237 278.523 125.6 277.2 125.7 275.02C126.04 267.833 126.127 263.323 125.96 261.49C125.48 256.303 125.604 251.98 126.33 248.52C126.464 247.887 126.357 246.607 126.01 244.68C124.94 238.66 131.12 241.06 134.08 240.63C135.887 240.363 137.704 240.453 139.53 240.9C139.854 240.979 140.187 240.993 140.51 240.94C142.75 240.567 146.08 240.357 150.5 240.31C151.647 240.297 152.854 240.61 154.12 241.25C154.187 241.284 154.246 241.332 154.293 241.39C154.341 241.449 154.375 241.516 154.395 241.589C154.415 241.661 154.419 241.737 154.408 241.811C154.397 241.885 154.37 241.957 154.33 242.02L153.42 243.45C153.322 243.606 153.185 243.735 153.022 243.824C152.86 243.914 152.676 243.96 152.49 243.96H129.91C129.776 243.96 129.646 244.012 129.549 244.105C129.452 244.198 129.395 244.326 129.39 244.46L128.89 257.34C128.887 257.42 128.901 257.499 128.93 257.573C128.96 257.647 129.005 257.713 129.061 257.768C129.118 257.823 129.186 257.865 129.26 257.891C129.334 257.917 129.412 257.927 129.49 257.92L136.94 257.25C136.973 257.243 137.007 257.243 137.04 257.25C141.247 257.603 145.604 257.503 150.11 256.95C150.332 256.922 150.557 256.941 150.771 257.005C150.985 257.07 151.184 257.178 151.354 257.324C151.524 257.47 151.663 257.65 151.76 257.852C151.858 258.055 151.912 258.275 151.92 258.5L151.94 259.03C151.952 259.329 151.847 259.62 151.649 259.842C151.452 260.064 151.176 260.2 150.88 260.22L138.64 261.11C138.555 261.117 138.469 261.103 138.39 261.07C137.624 260.737 134.877 260.74 130.15 261.08C130.006 261.092 129.872 261.155 129.772 261.256C129.673 261.357 129.615 261.49 129.61 261.63L129.08 275.18C129.077 275.264 129.092 275.349 129.124 275.427C129.156 275.505 129.204 275.575 129.266 275.633C129.328 275.691 129.401 275.735 129.481 275.762C129.561 275.789 129.646 275.799 129.73 275.79Z" fill="black"/>
<path d="M98.6499 245.88C98.6171 245.613 98.5306 245.356 98.3956 245.123C98.2607 244.891 98.0801 244.689 97.8649 244.529C97.6497 244.369 97.4044 244.254 97.1439 244.193C96.8835 244.131 96.6133 244.123 96.3499 244.17C92.7832 244.797 89.4066 244.817 86.2199 244.23C85.8415 244.16 85.5017 243.954 85.2641 243.652C85.0266 243.349 84.9078 242.97 84.9299 242.586C84.952 242.201 85.1135 241.838 85.3841 241.565C85.6548 241.291 86.016 241.126 86.3999 241.1L94.7999 240.51C95.0122 240.497 95.2243 240.513 95.4299 240.56L98.2599 241.18C98.6696 241.272 99.0971 241.286 99.5199 241.22C104.267 240.493 109.563 240.27 115.41 240.55C115.84 240.568 116.246 240.753 116.542 241.067C116.839 241.38 117.003 241.797 117 242.23V242.32C116.997 242.738 116.832 243.139 116.539 243.438C116.246 243.737 115.848 243.91 115.43 243.92L102.9 244.28C102.743 244.284 102.589 244.321 102.447 244.389C102.306 244.457 102.18 244.554 102.079 244.674C101.978 244.794 101.904 244.934 101.861 245.085C101.818 245.236 101.807 245.395 101.83 245.55C102.25 248.523 102.463 250.433 102.47 251.28C102.5 255.45 103.46 258.93 103.49 262.89C103.52 267.55 103.99 271.6 104.02 276.32C104.025 276.751 103.86 277.168 103.561 277.479C103.261 277.789 102.851 277.969 102.42 277.98H102.39C102.182 277.985 101.975 277.949 101.781 277.874C101.588 277.799 101.411 277.686 101.261 277.541C101.111 277.397 100.991 277.225 100.909 277.034C100.826 276.843 100.782 276.638 100.78 276.43C100.653 266.483 99.9432 256.3 98.6499 245.88Z" fill="black"/>
</svg>
